<svg width="88" height="55" viewBox="0 0 88 55" fill="none" xmlns="http://www.w3.org/2000/svg">
<g clip-path="url(#clip0)">
<path d="M58.026 7.71509H37.7041L33.7459 13.1147H52.7546L51.3762 8.91702L56.927 13.1147H58.6779V14.0798H57.0108L51.0875 22.9031L52.6708 14.0798H49.6626L47.5019 20.8544L45.3318 14.0798H42.5285L43.4505 19.6251L38.3375 14.0798H33.7366L47.8651 29.6503L62.3847 13.6519L58.026 7.71509Z" fill="white"/>
<path d="M27.5246 17.7038C27.5246 25.4253 22.1973 32.1634 12.2133 32.1634C9.00953 32.1634 6.17825 31.7263 5.80572 31.7263C5.61945 31.7263 3.27247 31.8356 2.15486 31.8356C1.74507 31.8356 1.5588 31.7628 1.5588 31.5442C1.5588 31.435 1.63331 31.3257 1.85683 31.3257C2.19212 31.3257 2.63916 31.2893 2.97444 31.18C3.5705 30.9979 3.75677 30.6701 3.98029 29.6138C4.16656 28.6669 4.24107 25.7167 4.24107 21.2732V14.8629C4.24107 8.74403 4.20381 7.2143 4.1293 6.59513C4.01754 5.721 3.79402 5.17467 2.56465 4.91971C2.26662 4.84687 1.63331 4.81045 1.29803 4.81045C1.14901 4.81045 1 4.7376 1 4.59191C1 4.37338 1.18627 4.30054 1.59606 4.30054C3.27247 4.30054 5.61945 4.4098 5.80572 4.4098C6.25276 4.4098 8.7115 4.30054 10.9467 4.30054C19.7758 4.30054 27.5246 7.76063 27.5246 17.7038ZM7.37037 22.8758C7.37037 26.7729 7.37037 29.8142 8.81395 30.5426C9.36344 30.8158 10.4065 30.925 12.3251 30.925C19.5523 30.925 24.1718 26.2994 24.1718 18.8329C24.1718 10.0916 17.3543 5.53889 8.41347 5.53889C7.6684 5.53889 7.37037 6.12164 7.37037 9.18109V22.8758Z" fill="white"/>
<path d="M84.8859 9.45421C84.6158 9.45421 84.5693 9.2721 84.5227 8.98072C84.4761 8.54366 84.2061 7.56937 83.936 7.17783C83.6659 6.77719 82.4551 5.26567 78.3107 5.26567C75.2093 5.26567 72.7785 6.82271 72.7785 9.45421C72.7785 11.5121 73.9892 12.7777 78.2734 15.5276L80.9277 17.2303C84.2992 19.3974 86.106 21.7467 86.106 24.8243C86.106 28.9127 82.3713 32.3455 75.4794 32.3455C73.3653 32.3455 71.2977 32.0905 69.4443 31.3712C68.811 31.1163 68.7737 30.9706 68.7737 29.9963C68.7737 28.1934 68.9507 26.7456 68.9973 26.1629C69.0438 25.7622 69.137 25.5801 69.3605 25.5801C69.6306 25.5801 69.6771 25.6894 69.6771 25.9807C69.6771 26.3085 69.6771 26.8093 69.8168 27.3193C70.4874 29.9963 73.4584 31.007 76.4759 31.007C80.7973 31.007 82.9115 28.5121 82.9115 26.1993C82.9115 23.7044 81.6076 22.2566 77.7332 19.6888L75.7122 18.3503C70.9438 15.2089 69.8634 12.9689 69.8634 10.5105C69.8541 6.6406 73.4584 4 79.1675 4C80.9184 4 82.2316 4.14569 83.3492 4.36422C84.2061 4.50991 84.56 4.54633 84.9232 4.54633C85.2864 4.54633 85.3702 4.61918 85.3702 4.80129C85.3702 4.9834 85.1933 6.17622 85.1933 8.63471C85.2026 9.20836 85.1095 9.45421 84.8859 9.45421Z" fill="white"/>
<path d="M6.17829 47.2057C6.17829 49.8645 6.17829 50.8843 5.67536 52.0498C5.32145 52.8693 4.58569 53.6433 3.22594 54.563C3.01173 54.7086 2.74164 54.8908 2.574 54.9727C2.53674 54.9909 2.5088 55.0091 2.45292 55.0091C2.40636 55.0091 2.33185 54.9727 2.33185 54.909C2.33185 54.8088 2.41567 54.7633 2.56468 54.6631C2.76958 54.5448 3.00241 54.3535 3.15143 54.2078C4.2411 53.1243 4.76265 52.2502 4.76265 48.0161V43.2721C4.76265 40.7135 4.76265 40.2491 4.7254 39.7301C4.68814 39.1746 4.55775 38.9106 3.99895 38.7922C3.86856 38.7558 3.57985 38.7467 3.43083 38.7467C3.36564 38.7467 3.30044 38.7103 3.30044 38.6465C3.30044 38.5464 3.38426 38.519 3.57053 38.519C4.32492 38.519 5.38665 38.5646 5.47047 38.5646C5.55429 38.5646 6.61602 38.519 7.11894 38.519C7.30521 38.519 7.38903 38.5555 7.38903 38.6465C7.38903 38.7103 7.32384 38.7467 7.25864 38.7467C7.13757 38.7467 7.04444 38.7649 6.83954 38.7922C6.38318 38.8742 6.2528 39.1564 6.21554 39.7301C6.17829 40.2582 6.17829 40.7135 6.17829 43.2721V47.2057Z" fill="white"/>
<path d="M13.3962 43.8458C13.3962 43.9642 13.4148 44.0097 13.4986 44.0097C13.7128 44.0097 15.7804 44.0097 16.1716 43.9733C16.572 43.9368 16.8142 43.9095 16.9632 43.7456C17.0843 43.6181 17.1495 43.5362 17.2147 43.5362C17.2612 43.5362 17.2985 43.5726 17.2985 43.6637C17.2985 43.7274 17.0936 44.8292 17.0936 45.6305C17.0936 45.8126 17.075 45.9401 16.9725 45.9401C16.8887 45.9401 16.8515 45.8763 16.8515 45.7944C16.8515 45.6305 16.8515 45.4666 16.7863 45.2571C16.7211 45.0295 16.5721 44.7472 15.9108 44.6835C15.4544 44.638 13.7967 44.6015 13.5079 44.6015C13.4241 44.6015 13.3869 44.6471 13.3869 44.7199V48.9722C13.3869 50.0557 13.6849 50.3198 15.3334 50.3198C15.7711 50.3198 16.5069 50.3198 16.9446 50.1377C17.3823 49.9556 17.5872 49.6278 17.699 48.954C17.7362 48.7719 17.7642 48.7081 17.848 48.7081C17.9504 48.7081 17.9504 48.8356 17.9504 48.954C17.9504 49.0815 17.82 50.2014 17.7362 50.5474C17.6152 50.9754 17.4848 50.9754 16.8328 50.9754C14.2996 50.9754 13.1727 50.8752 12.6884 50.8752C12.2506 50.8752 11.4124 50.9208 11.0399 50.9208C10.8536 50.9208 10.7698 50.8844 10.7698 50.7933C10.7698 50.7478 10.8071 50.6931 10.9002 50.6931C11.0492 50.6931 11.2541 50.6749 11.4031 50.6294C11.6732 50.5474 11.757 50.4018 11.8595 49.9192C11.9433 49.4912 11.9805 48.1618 11.9805 46.1586V43.2721C11.9805 40.5132 11.9619 39.8211 11.934 39.548C11.8874 39.1564 11.785 38.9106 11.2262 38.7922C11.0958 38.7558 10.8071 38.7467 10.658 38.7467C10.5928 38.7467 10.5276 38.7103 10.5276 38.6465C10.5276 38.5464 10.6115 38.5191 10.7977 38.5191C11.5521 38.5191 12.6139 38.5646 12.6977 38.5646C14.5138 38.5646 16.2275 38.5464 16.4882 38.5282C16.7583 38.5099 17.1588 38.4826 17.224 38.4644C17.3264 38.428 17.3916 38.3643 17.4568 38.3643C17.522 38.3643 17.5593 38.4644 17.5593 38.5464C17.5593 38.6647 17.4755 38.856 17.4289 39.3203C17.4103 39.4842 17.3823 40.2036 17.3451 40.4039C17.3264 40.4858 17.2985 40.5678 17.2147 40.5678C17.1309 40.5678 17.0936 40.5041 17.0936 40.3857C17.0936 40.2582 17.047 39.9759 16.9446 39.7574C16.8421 39.548 16.4417 39.2202 15.4544 39.2202C15.352 39.2202 13.8432 39.1746 13.5079 39.1746C13.4427 39.1746 13.4055 39.2111 13.4055 39.3203V43.8458H13.3962Z" fill="white"/>
<path d="M33.569 48.6536H33.6342C34.0905 47.142 35.6365 42.3799 36.2233 40.2856C36.3909 39.6755 36.4096 39.4479 36.4096 39.2385C36.4096 38.9471 36.2233 38.7468 35.4503 38.7468C35.3664 38.7468 35.3013 38.7012 35.3013 38.6284C35.3013 38.5464 35.3851 38.51 35.59 38.51C36.4468 38.51 37.1546 38.5555 37.3036 38.5555C37.4247 38.5555 38.1418 38.51 38.6634 38.51C38.8124 38.51 38.8962 38.5464 38.8962 38.6102C38.8962 38.6921 38.8497 38.7376 38.7472 38.7376C38.682 38.7376 38.3654 38.7559 38.1791 38.8196C37.6762 39.0017 37.4061 39.6937 37.0894 40.5952C36.3537 42.6803 34.6586 47.8978 33.9974 49.7371C33.5596 50.9481 33.4758 51.1485 33.2896 51.1485C33.1219 51.1485 33.0195 50.939 32.7866 50.2926L29.499 41.1688H29.4618C28.8564 42.7441 26.556 48.7537 25.9506 50.2834C25.6805 50.9755 25.5967 51.1576 25.4011 51.1576C25.2335 51.1576 25.1496 50.9755 24.8144 49.8646L21.8248 40.1308C21.5547 39.2567 21.3405 39.0108 20.9027 38.8469C20.6885 38.765 20.2601 38.7468 20.1483 38.7468C20.0645 38.7468 19.9993 38.7285 19.9993 38.6284C19.9993 38.5464 20.1018 38.51 20.2694 38.51C21.1449 38.51 22.0669 38.5555 22.2532 38.5555C22.4022 38.5555 23.1473 38.51 23.9855 38.51C24.2183 38.51 24.2835 38.5555 24.2835 38.6284C24.2835 38.7285 24.1997 38.7468 24.1159 38.7468C23.9855 38.7468 23.6595 38.7468 23.4639 38.8469C23.3615 38.8924 23.2497 39.029 23.2497 39.2385C23.2497 39.4479 23.3987 40.0306 23.5664 40.75C23.8178 41.7971 25.5687 47.825 25.8202 48.6991H25.8575L29.3872 39.3295C29.6387 38.6557 29.7039 38.5737 29.8063 38.5737C29.9274 38.5737 30.0206 38.7832 30.2254 39.3477L33.569 48.6536Z" fill="white"/>
<path d="M43.5902 43.8458C43.5902 43.9642 43.6088 44.0097 43.6926 44.0097C43.9069 44.0097 45.9744 44.0097 46.3656 43.9733C46.7661 43.9368 47.0082 43.9095 47.1572 43.7456C47.2783 43.6181 47.3435 43.5362 47.4087 43.5362C47.4552 43.5362 47.4925 43.5726 47.4925 43.6637C47.4925 43.7274 47.2876 44.8292 47.2876 45.6305C47.2876 45.8126 47.269 45.9401 47.1665 45.9401C47.0827 45.9401 47.0455 45.8763 47.0455 45.7944C47.0455 45.6305 47.0455 45.4666 46.9803 45.2571C46.9151 45.0295 46.7661 44.7472 46.1048 44.6835C45.6485 44.638 43.9907 44.6015 43.702 44.6015C43.6181 44.6015 43.5809 44.6471 43.5809 44.7199V48.9722C43.5809 50.0557 43.8789 50.3198 45.5274 50.3198C45.9651 50.3198 46.7009 50.3198 47.1386 50.1377C47.5763 49.9556 47.7719 49.6278 47.893 48.954C47.9302 48.7719 47.9582 48.7081 48.042 48.7081C48.1444 48.7081 48.1444 48.8356 48.1444 48.954C48.1444 49.0815 48.014 50.2014 47.9302 50.5474C47.8092 50.9754 47.6788 50.9754 47.0268 50.9754C44.4936 50.9754 43.3667 50.8752 42.8824 50.8752C42.4447 50.8752 41.6064 50.9208 41.2339 50.9208C41.0476 50.9208 40.9638 50.8844 40.9638 50.7933C40.9638 50.7478 41.0011 50.6931 41.0942 50.6931C41.2432 50.6931 41.4481 50.6749 41.5971 50.6294C41.8672 50.5474 41.951 50.4018 42.0535 49.9192C42.1373 49.4912 42.1746 48.1618 42.1746 46.1586V43.2721C42.1746 40.5132 42.1559 39.8211 42.128 39.548C42.0814 39.1564 41.979 38.9106 41.4202 38.7922C41.2898 38.7558 41.0011 38.7467 40.8521 38.7467C40.7869 38.7467 40.7217 38.7103 40.7217 38.6465C40.7217 38.5464 40.8055 38.5191 40.9918 38.5191C41.7461 38.5191 42.8079 38.5646 42.8917 38.5646C44.7078 38.5646 46.4215 38.5464 46.6822 38.5282C46.9523 38.5099 47.3528 38.4826 47.418 38.4644C47.5204 38.428 47.5856 38.3643 47.6508 38.3643C47.716 38.3643 47.7533 38.4644 47.7533 38.5464C47.7533 38.6647 47.6695 38.856 47.6229 39.3203C47.6043 39.4842 47.5763 40.2036 47.5391 40.4039C47.5204 40.4858 47.4925 40.5678 47.4087 40.5678C47.3249 40.5678 47.2876 40.5041 47.2876 40.3857C47.2876 40.2582 47.241 39.9759 47.1386 39.7574C47.0361 39.548 46.6357 39.2202 45.6485 39.2202C45.546 39.2202 44.0372 39.1746 43.702 39.1746C43.6368 39.1746 43.5995 39.2111 43.5995 39.3203V43.8458H43.5902Z" fill="white"/>
<path d="M54.282 46.1859C54.282 48.5988 54.3472 49.646 54.6545 49.9465C54.9246 50.2105 55.3623 50.3198 56.6662 50.3198C57.5603 50.3198 58.2961 50.3016 58.6965 49.8281C58.9107 49.564 59.0784 49.1543 59.1343 48.8447C59.1529 48.7172 59.1808 48.6353 59.2833 48.6353C59.3671 48.6353 59.3857 48.699 59.3857 48.8811C59.3857 49.0632 59.2647 50.0466 59.1343 50.5201C59.0132 50.8934 58.9666 50.9663 58.0725 50.9663C55.6511 50.9663 54.5428 50.8661 53.5742 50.8661C53.4252 50.8661 52.4286 50.9117 51.9257 50.9117C51.7394 50.9117 51.6556 50.8752 51.6556 50.7842C51.6556 50.7386 51.6929 50.684 51.786 50.684C51.935 50.684 52.1399 50.6476 52.2889 50.6203C52.6242 50.5565 52.708 50.1923 52.7732 49.7188C52.857 49.0268 52.857 47.7338 52.857 46.1586V43.2721C52.857 40.7135 52.857 40.2491 52.8198 39.7301C52.7825 39.1746 52.6521 38.9106 52.0933 38.7922C51.963 38.7558 51.6742 38.7467 51.5252 38.7467C51.46 38.7467 51.3948 38.7103 51.3948 38.6465C51.3948 38.5464 51.4787 38.519 51.6649 38.519C52.4193 38.519 53.481 38.5646 53.5649 38.5646C53.6487 38.5646 54.8781 38.519 55.381 38.519C55.5672 38.519 55.6511 38.5555 55.6511 38.6465C55.6511 38.7103 55.5859 38.7467 55.5207 38.7467C55.3996 38.7467 55.1668 38.7649 54.9619 38.7922C54.4776 38.8742 54.3379 39.1564 54.3099 39.7301C54.2727 40.2582 54.2727 40.7135 54.2727 43.2721V46.1859H54.282Z" fill="white"/>
<path d="M63.2695 43.2631C63.2695 40.7044 63.2695 40.2401 63.2322 39.721C63.1949 39.1656 63.0646 38.9015 62.5058 38.7832C62.3754 38.7468 62.0866 38.7376 61.9376 38.7376C61.8724 38.7376 61.8073 38.7012 61.8073 38.6375C61.8073 38.5373 61.8911 38.51 62.0773 38.51C62.8317 38.51 63.8935 38.5555 63.9773 38.5555C64.1635 38.5555 65.4395 38.51 65.961 38.51C67.0228 38.51 68.1404 38.6102 69.0345 39.2293C69.4536 39.5207 70.1893 40.3311 70.1893 41.4602C70.1893 42.6712 69.6678 43.8914 68.159 45.2481C69.5374 46.969 70.6736 48.435 71.6515 49.4548C72.5549 50.3927 73.2814 50.5748 73.7005 50.6386C74.0171 50.6841 74.2593 50.6841 74.3524 50.6841C74.4362 50.6841 74.5014 50.7296 74.5014 50.7842C74.5014 50.8844 74.399 50.9117 74.101 50.9117H72.8995C71.9589 50.9117 71.5398 50.8298 71.102 50.6021C70.3756 50.2288 69.7888 49.4184 68.8389 48.1892C68.1311 47.2877 67.3487 46.186 67.0134 45.758C66.9482 45.6943 66.8924 45.6578 66.7992 45.6578L64.7317 45.6214C64.6478 45.6214 64.6106 45.6669 64.6106 45.7489V46.1404C64.6106 47.7157 64.6106 49.0087 64.6944 49.7007C64.741 50.1742 64.8434 50.5384 65.3463 50.6021C65.5792 50.6386 65.9517 50.6659 66.1007 50.6659C66.2032 50.6659 66.2311 50.7114 66.2311 50.766C66.2311 50.848 66.1473 50.8935 65.961 50.8935C65.039 50.8935 63.9773 50.848 63.8935 50.848C63.8748 50.848 62.8224 50.8935 62.3195 50.8935C62.1332 50.8935 62.0494 50.8571 62.0494 50.766C62.0494 50.7205 62.0867 50.6659 62.1798 50.6659C62.3288 50.6659 62.5337 50.6295 62.6827 50.6021C63.018 50.5384 63.1018 50.1742 63.167 49.7007C63.2508 49.0087 63.2508 47.7157 63.2508 46.1404V43.2631H63.2695ZM64.6106 44.6927C64.6106 44.7746 64.6478 44.8383 64.7317 44.893C64.9831 45.0387 65.7561 45.157 66.4919 45.157C66.8924 45.157 67.3674 45.1115 67.7492 44.8475C68.3359 44.4559 68.7737 43.5636 68.7737 42.3161C68.7737 40.2674 67.6654 39.029 65.8679 39.029C65.365 39.029 64.9086 39.0746 64.741 39.1292C64.6572 39.1656 64.6106 39.2293 64.6106 39.3295V44.6927Z" fill="white"/>
<path d="M80.257 46.6686C80.257 45.7853 80.0894 45.4211 79.8752 44.9476C79.7541 44.6836 77.5096 41.0778 76.9228 40.2218C76.5037 39.6118 76.0846 39.202 75.7773 39.0108C75.5258 38.8469 75.2091 38.7468 75.0508 38.7468C74.967 38.7468 74.8832 38.7103 74.8832 38.6284C74.8832 38.5646 74.9484 38.51 75.0974 38.51C75.414 38.51 76.6714 38.5555 76.7552 38.5555C76.8763 38.5555 77.5096 38.51 78.1615 38.51C78.3478 38.51 78.3757 38.5555 78.3757 38.6284C78.3757 38.6921 78.2733 38.7103 78.1242 38.7741C77.9939 38.8378 77.91 38.938 77.91 39.0654C77.91 39.2658 77.9939 39.457 78.1242 39.7028C78.3943 40.1763 80.909 44.4104 81.2163 44.893C81.533 44.201 83.6657 40.6043 84.001 40.0671C84.2152 39.721 84.2897 39.4388 84.2897 39.2293C84.2897 39.0017 84.2245 38.8196 84.0196 38.7741C83.8706 38.7285 83.7682 38.6921 83.7682 38.6102C83.7682 38.5464 83.8706 38.51 84.0383 38.51C84.476 38.51 85.0162 38.5555 85.1466 38.5555C85.249 38.5555 86.4598 38.51 86.7764 38.51C86.8975 38.51 86.9906 38.5464 86.9906 38.6102C86.9906 38.6921 86.9068 38.7376 86.7764 38.7376C86.5901 38.7376 86.2735 38.8014 86.0034 38.9653C85.6681 39.1656 85.4818 39.3568 85.1093 39.803C84.5598 40.4586 82.2035 44.3193 81.9055 45.0205C81.654 45.6123 81.654 46.1222 81.654 46.6594V48.0708C81.654 48.3349 81.654 49.0269 81.7006 49.7098C81.7379 50.1833 81.8869 50.5475 82.3898 50.6112C82.6226 50.6477 82.9952 50.675 83.1442 50.675C83.2466 50.675 83.2746 50.7205 83.2746 50.7751C83.2746 50.8571 83.1907 50.9026 83.0045 50.9026C82.0824 50.9026 81.0207 50.8571 80.9369 50.8571C80.8531 50.8571 79.7913 50.9026 79.2884 50.9026C79.1022 50.9026 79.0183 50.8662 79.0183 50.7751C79.0183 50.7296 79.0556 50.675 79.1487 50.675C79.2977 50.675 79.5026 50.6386 79.6516 50.6112C79.9869 50.5475 80.1359 50.1833 80.1732 49.7098C80.2198 49.0178 80.2198 48.3349 80.2198 48.0708V46.6686H80.257Z" fill="white"/>
</g>
<defs>
<clipPath id="clip0">
<rect width="88" height="55" fill="white"/>
</clipPath>
</defs>
</svg>
