<?xml version="1.0" encoding="utf-8"?><svg xmlns="http://www.w3.org/2000/svg" xmlns:xlink="http://www.w3.org/1999/xlink"><symbol viewBox="0 0 88 55" id="headerLogo" xmlns="http://www.w3.org/2000/svg"><g clip-path="url(#aclip0)"><path d="M58.026 7.715H37.704l-3.958 5.4h19.009l-1.379-4.198 5.551 4.198h1.75v.965h-1.666l-5.924 8.823 1.584-8.823h-3.008l-2.161 6.774-2.17-6.774h-2.803l.921 5.545-5.113-5.545h-4.6l14.128 15.57 14.52-15.998-4.359-5.937zm-30.501 9.989c0 7.721-5.328 14.46-15.312 14.46-3.203 0-6.035-.438-6.407-.438-.187 0-2.534.11-3.651.11-.41 0-.596-.073-.596-.292 0-.109.074-.218.298-.218.335 0 .782-.037 1.117-.146.596-.182.783-.51 1.006-1.566.187-.947.261-3.897.261-8.34v-6.411c0-6.119-.037-7.649-.112-8.268-.111-.874-.335-1.42-1.564-1.675-.298-.073-.932-.11-1.267-.11-.149 0-.298-.072-.298-.218 0-.219.186-.291.596-.291 1.676 0 4.023.109 4.21.109.447 0 2.905-.11 5.14-.11 8.83 0 16.579 3.46 16.579 13.404zM7.37 22.876c0 3.897 0 6.938 1.444 7.667.55.273 1.592.382 3.511.382 7.227 0 11.847-4.626 11.847-12.092 0-8.741-6.818-13.294-15.759-13.294-.745 0-1.043.583-1.043 3.642v13.695zM84.886 9.454c-.27 0-.317-.182-.363-.473-.047-.437-.317-1.412-.587-1.803-.27-.4-1.48-1.912-5.625-1.912-3.102 0-5.533 1.557-5.533 4.188 0 2.058 1.211 3.324 5.495 6.074l2.655 1.702c3.371 2.167 5.178 4.517 5.178 7.594 0 4.089-3.735 7.521-10.627 7.521-2.114 0-4.181-.255-6.035-.974-.633-.255-.67-.4-.67-1.375 0-1.803.177-3.25.223-3.833.047-.4.14-.583.364-.583.27 0 .316.11.316.4 0 .328 0 .83.14 1.34.67 2.676 3.641 3.687 6.659 3.687 4.321 0 6.436-2.495 6.436-4.808 0-2.495-1.304-3.942-5.179-6.51l-2.02-1.339c-4.77-3.141-5.85-5.381-5.85-7.84C69.854 6.64 73.458 4 79.168 4c1.75 0 3.064.146 4.181.364.857.146 1.211.182 1.574.182s.447.073.447.255-.177 1.375-.177 3.834c.01.573-.084.82-.307.82zM6.178 47.206c0 2.658 0 3.678-.503 4.844-.354.82-1.09 1.593-2.45 2.513a6.75 6.75 0 01-.651.41c-.037.018-.065.036-.121.036-.047 0-.121-.036-.121-.1 0-.1.084-.146.233-.246.205-.118.437-.31.586-.455 1.09-1.084 1.612-1.958 1.612-6.192v-4.744c0-2.558 0-3.023-.038-3.542-.037-.555-.167-.82-.726-.938-.13-.036-.42-.045-.568-.045-.065 0-.13-.037-.13-.1 0-.1.083-.128.27-.128.754 0 1.816.046 1.9.046.083 0 1.145-.046 1.648-.046.186 0 .27.037.27.128 0 .063-.065.1-.13.1-.121 0-.215.018-.42.045-.456.082-.586.364-.623.938-.038.528-.038.984-.038 3.542v3.934zm7.218-3.36c0 .118.019.164.103.164.214 0 2.281 0 2.673-.037.4-.036.642-.063.791-.227.121-.128.186-.21.252-.21.046 0 .084.037.084.128 0 .063-.205 1.165-.205 1.966 0 .183-.019.31-.122.31-.083 0-.12-.064-.12-.146 0-.163 0-.327-.066-.537-.065-.227-.214-.51-.875-.573-.457-.046-2.114-.082-2.403-.082-.084 0-.121.045-.121.118v4.252c0 1.084.298 1.348 1.946 1.348.438 0 1.174 0 1.612-.182.437-.182.642-.51.754-1.184.037-.182.065-.246.149-.246.102 0 .102.128.102.246 0 .127-.13 1.247-.214 1.593-.12.428-.251.428-.903.428-2.533 0-3.66-.1-4.145-.1-.437 0-1.276.046-1.648.046-.186 0-.27-.037-.27-.128 0-.045.037-.1.13-.1.15 0 .354-.018.503-.064.27-.082.354-.227.457-.71.083-.428.12-1.757.12-3.76v-2.887c0-2.759-.018-3.45-.046-3.724-.047-.392-.149-.637-.708-.756-.13-.036-.419-.045-.568-.045-.065 0-.13-.037-.13-.1 0-.1.083-.128.27-.128.754 0 1.816.046 1.9.046 1.816 0 3.53-.019 3.79-.037.27-.018.67-.045.736-.064.102-.036.168-.1.233-.1s.102.1.102.182c0 .119-.084.31-.13.774-.019.164-.047.884-.084 1.084-.019.082-.046.164-.13.164s-.121-.064-.121-.182c0-.128-.047-.41-.15-.629-.102-.209-.502-.537-1.49-.537-.102 0-1.61-.045-1.946-.045-.065 0-.102.036-.102.145v4.526h-.01zm20.173 4.808h.065c.456-1.512 2.002-6.274 2.59-8.368.167-.61.186-.838.186-1.047 0-.292-.187-.492-.96-.492-.084 0-.149-.046-.149-.119 0-.082.084-.118.289-.118.857 0 1.565.046 1.714.046.12 0 .838-.046 1.36-.046.148 0 .232.036.232.1 0 .082-.046.128-.149.128-.065 0-.382.018-.568.082-.503.182-.773.874-1.09 1.775-.735 2.085-2.43 7.303-3.092 9.142-.437 1.211-.521 1.411-.707 1.411-.168 0-.27-.209-.503-.855l-3.288-9.124h-.037c-.606 1.575-2.906 7.585-3.511 9.114-.27.692-.354.875-.55.875-.168 0-.251-.183-.587-1.293l-2.99-9.734c-.27-.874-.484-1.12-.921-1.284-.214-.082-.643-.1-.755-.1-.084 0-.149-.019-.149-.119 0-.082.103-.118.27-.118.876 0 1.798.046 1.984.046.15 0 .894-.046 1.732-.046.233 0 .299.046.299.118 0 .1-.084.119-.168.119-.13 0-.456 0-.652.1-.102.045-.214.182-.214.392 0 .209.149.792.316 1.511.252 1.047 2.003 7.075 2.254 7.95h.038l3.53-9.37c.25-.674.316-.756.418-.756.121 0 .215.21.42.774l3.343 9.306zm10.021-4.808c0 .118.019.164.103.164.214 0 2.281 0 2.673-.037.4-.036.642-.063.791-.227.121-.128.187-.21.252-.21.046 0 .084.037.084.128 0 .063-.205 1.165-.205 1.966 0 .183-.019.31-.121.31-.084 0-.122-.064-.122-.146 0-.163 0-.327-.065-.537-.065-.227-.214-.51-.875-.573-.456-.046-2.114-.082-2.403-.082-.084 0-.121.045-.121.118v4.252c0 1.084.298 1.348 1.946 1.348.438 0 1.174 0 1.612-.182.437-.182.633-.51.754-1.184.037-.182.065-.246.149-.246.102 0 .102.128.102.246 0 .127-.13 1.247-.214 1.593-.12.428-.251.428-.903.428-2.533 0-3.66-.1-4.145-.1-.437 0-1.276.046-1.648.046-.186 0-.27-.037-.27-.128 0-.045.037-.1.13-.1.15 0 .354-.018.503-.064.27-.082.354-.227.456-.71.084-.428.122-1.757.122-3.76v-2.887c0-2.759-.02-3.45-.047-3.724-.047-.392-.149-.637-.708-.756-.13-.036-.419-.045-.568-.045-.065 0-.13-.037-.13-.1 0-.1.084-.128.27-.128.754 0 1.816.046 1.9.046 1.816 0 3.53-.019 3.79-.037.27-.018.67-.045.736-.064.102-.036.168-.1.233-.1s.102.1.102.182c0 .119-.084.31-.13.774-.019.164-.047.884-.084 1.084-.019.082-.047.164-.13.164-.084 0-.121-.064-.121-.182 0-.128-.047-.41-.15-.629-.102-.209-.502-.537-1.49-.537-.102 0-1.61-.045-1.946-.045-.065 0-.102.036-.102.145v4.526h-.01zm10.692 2.34c0 2.413.065 3.46.373 3.76.27.265.707.374 2.011.374.894 0 1.63-.018 2.03-.492a2.39 2.39 0 00.438-.983c.019-.128.047-.21.15-.21.083 0 .102.064.102.246s-.121 1.166-.252 1.64c-.12.372-.167.445-1.062.445-2.42 0-3.53-.1-4.498-.1-.149 0-1.145.046-1.648.046-.187 0-.27-.037-.27-.128 0-.045.037-.1.13-.1.149 0 .354-.036.503-.064.335-.063.419-.428.484-.901.084-.692.084-1.985.084-3.56v-2.887c0-2.558 0-3.023-.037-3.542-.038-.555-.168-.82-.727-.938-.13-.036-.419-.045-.568-.045-.065 0-.13-.037-.13-.1 0-.1.084-.128.27-.128.754 0 1.816.046 1.9.046.084 0 1.313-.046 1.816-.046.186 0 .27.037.27.128 0 .063-.065.1-.13.1a5.07 5.07 0 00-.56.045c-.483.082-.623.364-.651.938-.037.528-.037.984-.037 3.542v2.914h.009zm8.988-2.923c0-2.559 0-3.023-.038-3.542-.037-.555-.167-.82-.726-.938-.13-.036-.42-.045-.568-.045-.066 0-.13-.037-.13-.1 0-.1.083-.128.27-.128.754 0 1.816.046 1.9.046.185 0 1.461-.046 1.983-.046 1.062 0 2.18.1 3.073.72.42.29 1.155 1.101 1.155 2.23 0 1.211-.521 2.431-2.03 3.788 1.378 1.721 2.515 3.187 3.492 4.207.904.938 1.63 1.12 2.05 1.184.316.045.558.045.651.045.084 0 .15.046.15.1 0 .1-.103.128-.401.128H72.9c-.941 0-1.36-.082-1.798-.31-.726-.373-1.313-1.184-2.263-2.413-.708-.901-1.49-2.003-1.826-2.431-.065-.064-.12-.1-.214-.1l-2.067-.037c-.084 0-.121.046-.121.128v.391c0 1.576 0 2.869.083 3.56.047.474.15.838.652.902.233.037.606.064.755.064.102 0 .13.045.13.1 0 .082-.084.128-.27.128-.922 0-1.984-.046-2.067-.046-.02 0-1.072.046-1.575.046-.186 0-.27-.037-.27-.128 0-.045.038-.1.13-.1.15 0 .355-.036.504-.064.335-.064.419-.428.484-.901.084-.692.084-1.985.084-3.56v-2.878h.019zm1.34 1.43c0 .082.038.145.122.2.251.146 1.024.264 1.76.264.4 0 .875-.045 1.257-.31.587-.391 1.025-1.283 1.025-2.53 0-2.05-1.109-3.288-2.906-3.288-.503 0-.96.046-1.127.1a.2.2 0 00-.13.2v5.364zm15.647 1.976c0-.884-.168-1.248-.382-1.721-.12-.264-2.365-3.87-2.952-4.726-.42-.61-.838-1.02-1.146-1.211-.251-.164-.568-.264-.726-.264-.084 0-.168-.037-.168-.119 0-.063.065-.118.214-.118.317 0 1.574.046 1.658.046.121 0 .755-.046 1.407-.046.186 0 .214.046.214.118 0 .064-.103.082-.252.146-.13.064-.214.164-.214.291 0 .2.084.392.214.638.27.473 2.785 4.707 3.092 5.19.317-.692 2.45-4.289 2.785-4.826.214-.346.289-.628.289-.838 0-.227-.066-.41-.27-.455-.15-.046-.252-.082-.252-.164 0-.064.103-.1.27-.1.438 0 .978.046 1.109.046.102 0 1.313-.046 1.63-.046.12 0 .214.036.214.1 0 .082-.084.128-.215.128-.186 0-.502.063-.773.227-.335.2-.521.392-.894.838-.55.656-2.905 4.516-3.203 5.218-.252.591-.252 1.101-.252 1.638v1.412c0 .264 0 .956.047 1.639.037.473.186.837.689.901.233.037.605.064.754.064.103 0 .13.046.13.1 0 .082-.083.128-.27.128-.922 0-1.983-.046-2.067-.046-.084 0-1.146.046-1.649.046-.186 0-.27-.037-.27-.128 0-.045.038-.1.13-.1.15 0 .355-.036.504-.064.335-.063.484-.428.521-.901.047-.692.047-1.375.047-1.64v-1.4h.037z"/></g><defs><clipPath id="aclip0"><path d="M0 0h88v55H0z"/></clipPath></defs></symbol><symbol viewBox="0 -28 512.001 512" id="heart" xmlns="http://www.w3.org/2000/svg"><path d="M256 455.516a30.022 30.022 0 01-19.793-7.438c-20.684-18.086-40.625-35.082-58.219-50.074l-.09-.078c-51.582-43.957-96.125-81.918-127.117-119.313C16.137 236.81 0 197.172 0 153.871c0-42.07 14.426-80.883 40.617-109.293C67.121 15.832 103.488 0 143.031 0c29.555 0 56.621 9.344 80.446 27.77C235.5 37.07 246.398 48.453 256 61.73c9.605-13.277 20.5-24.66 32.527-33.96C312.352 9.344 339.418 0 368.973 0c39.539 0 75.91 15.832 102.414 44.578C497.578 72.988 512 111.801 512 153.871c0 43.3-16.133 82.938-50.777 124.738-30.993 37.399-75.532 75.356-127.106 119.309-17.625 15.016-37.597 32.039-58.328 50.168a30.046 30.046 0 01-19.789 7.43zM143.031 29.992c-31.066 0-59.605 12.399-80.367 34.914-21.07 22.856-32.676 54.45-32.676 88.965 0 36.418 13.535 68.988 43.883 105.606 29.332 35.394 72.961 72.574 123.477 115.625l.093.078c17.66 15.05 37.68 32.113 58.516 50.332 20.961-18.254 41.012-35.344 58.707-50.418 50.512-43.051 94.137-80.223 123.469-115.617 30.344-36.618 43.879-69.188 43.879-105.606 0-34.516-11.606-66.11-32.676-88.965-20.758-22.515-49.3-34.914-80.363-34.914-22.758 0-43.653 7.235-62.102 21.5-16.441 12.719-27.894 28.797-34.61 40.047-3.452 5.785-9.53 9.238-16.261 9.238s-12.809-3.453-16.262-9.238c-6.71-11.25-18.164-27.328-34.61-40.047-18.448-14.265-39.343-21.5-62.097-21.5zm0 0"/></symbol><symbol viewBox="0 0 10 11" id="i-delete" xmlns="http://www.w3.org/2000/svg"><g clip-path="url(#cclip0)"><path fill-rule="evenodd" clip-rule="evenodd" d="M6.186 5.357l3.56-3.634a.849.849 0 000-1.211.808.808 0 00-1.187 0L5 4.146 1.44.512a.808.808 0 00-1.186 0 .849.849 0 000 1.211l3.56 3.634-3.56 3.634a.849.849 0 000 1.212.808.808 0 001.187 0L5 6.568l3.56 3.635a.808.808 0 001.186 0 .849.849 0 000-1.212l-3.56-3.634z"/></g><defs><clipPath id="cclip0"><path transform="translate(0 .252)" d="M0 0h10v10.21H0z"/></clipPath></defs></symbol><symbol viewBox="0 -53 384 384" id="menu" xmlns="http://www.w3.org/2000/svg"><path d="M368 154.668H16c-8.832 0-16-7.168-16-16s7.168-16 16-16h352c8.832 0 16 7.168 16 16s-7.168 16-16 16zM368 32H16C7.168 32 0 24.832 0 16S7.168 0 16 0h352c8.832 0 16 7.168 16 16s-7.168 16-16 16zm0 245.332H16c-8.832 0-16-7.168-16-16s7.168-16 16-16h352c8.832 0 16 7.168 16 16s-7.168 16-16 16zm0 0"/></symbol><symbol viewBox="0 0 512.005 512.005" id="search" xmlns="http://www.w3.org/2000/svg"><path d="M505.749 475.587l-145.6-145.6c28.203-34.837 45.184-79.104 45.184-127.317C405.333 90.926 314.41.003 202.666.003S0 90.925 0 202.669s90.923 202.667 202.667 202.667c48.213 0 92.48-16.981 127.317-45.184l145.6 145.6c4.16 4.16 9.621 6.251 15.083 6.251s10.923-2.091 15.083-6.251c8.341-8.341 8.341-21.824-.001-30.165zM202.667 362.669c-88.235 0-160-71.765-160-160s71.765-160 160-160 160 71.765 160 160-71.766 160-160 160z"/></symbol><symbol viewBox="0 0 2138.327 2138.327" id="shoppingCart" xmlns="http://www.w3.org/2000/svg"><path d="M1032.925 1852.654c0 98.076-79.506 177.583-177.583 177.583S677.76 1950.73 677.76 1852.654s79.506-177.583 177.583-177.583 177.582 79.507 177.582 177.583zm541.462-177.582c-98.076 0-177.583 79.507-177.583 177.583s79.507 177.583 177.583 177.583 177.583-79.507 177.583-177.583c-.001-98.077-79.507-177.583-177.583-177.583zm551.232-833.649l-218.512 649.464s-18.088 96.383-110.247 96.383H693.471c-109.982 0-114.604-120.809-114.604-120.809S461.624 596.637 455.814 544.088s-73.013-91.498-73.013-91.498L93.651 317.522c-158.306-82.784-86.349-240.298 0-204.121 366.652 172.961 536.973 258.122 547.932 326.25 11.091 68.26 30.367 232.64 30.367 232.64v1.056c2.245-.66 3.829-1.056 3.829-1.056h1351.477c163.191 0 98.363 169.397 98.363 169.132zm-316.084 361.635l-2.245.132H737.57L759.619 1378h997.896l52.02-174.942zm104.173-352.524H693.339l23.502 186.825h1141.678l55.189-186.825z"/></symbol></svg>